<mxfile host="app.diagrams.net" modified="2023-10-27T15:04:17.729Z" agent="Mozilla/5.0 (Windows NT 10.0; Win64; x64) AppleWebKit/537.36 (KHTML, like Gecko) Chrome/118.0.0.0 Safari/537.36" etag="IaQq-lQSx3fTqEU3pqte" version="22.0.8" type="github">
  <diagram name="Page-1" id="ayEMAd5aHG_atDU72rWN">
    <mxGraphModel dx="718" dy="447" grid="1" gridSize="10" guides="1" tooltips="1" connect="1" arrows="1" fold="1" page="1" pageScale="1" pageWidth="850" pageHeight="1100" math="0" shadow="0">
      <root>
        <mxCell id="0" />
        <mxCell id="1" parent="0" />
        <mxCell id="N42mgj1Z15oAKjAtkDer-4" value="" style="shape=image;verticalLabelPosition=bottom;verticalAlign=top;imageAspect=0;aspect=fixed;image=data:image/svg+xml,PHN2ZyB4bWxucz0iaHR0cDovL3d3dy53My5vcmcvMjAwMC9zdmciIGlkPSJkb2N1bWVudC1zZXJ2aWNlIiB2aWV3Qm94PSI0LjAwMDAwMTkwNzM0ODYzMyAzLjk5OTk5OTA0NjMyNTY4MzYgNDggNDcuOTk5OTk2MTg1MzAyNzM0IiB3aWR0aD0iNDgiIGhlaWdodD0iNDcuOTk5OTk2MTg1MzAyNzM0Ij48ZGVmcz48c3R5bGU+LmNscy0xe2ZpbGw6IzA3NGQ5Mjt9LmNscy0ye2ZpbGw6IzBhNmVkMTt9LmNscy0ze2ZpbGw6IzA1M2I3MDt9PC9zdHlsZT48L2RlZnM+PHRpdGxlPmRvY3VtZW50LXNlcnZpY2VfY2lyY2xlPC90aXRsZT48cGF0aCBjbGFzcz0iY2xzLTEiIGQ9Ik0yOCw2QTIyLDIyLDAsMSwxLDYsMjgsMjIuMDI1LDIyLjAyNSwwLDAsMSwyOCw2bTAtMkEyNCwyNCwwLDEsMCw1MiwyOCwyNCwyNCwwLDAsMCwyOCw0WiIvPjxwYXRoIGNsYXNzPSJjbHMtMiIgZD0iTTQwLjI1LDIzLjYyNWgtLjExN2wtMy4zODMtN0gxOS4yNWwtMy4zODMsN0gxNS43NUExLjcxOCwxLjcxOCwwLDAsMCwxNCwyNS4zNzV2MTIuMjVhMS43MTgsMS43MTgsMCwwLDAsMS43NSwxLjc1aDI0LjVBMS43MTgsMS43MTgsMCwwLDAsNDIsMzcuNjI1VjI1LjM3NUExLjcxOCwxLjcxOCwwLDAsMCw0MC4yNSwyMy42MjVabS0xLjg2Ny0uMDU4SDE3LjU1OGwyLjY4NC01LjZIMzUuNzU4TTE1Ljc1LDM3LjYyNVYyNS4zNzVoMjQuNXYxMi4yNVoiLz48cG9seWdvbiBjbGFzcz0iY2xzLTMiIHBvaW50cz0iMzEuNSAzNC4xMjUgMjQuNSAzNC4xMjUgMjQuNSAzMy4yNSAyMi43NSAzMy4yNSAyMi43NSAzNC4xMjUgMjIuNzUgMzUuODc1IDMzLjI1IDM1Ljg3NSAzMy4yNSAzNC4xMjUgMzMuMjUgMzMuMjUgMzEuNSAzMy4yNSAzMS41IDM0LjEyNSIvPjxyZWN0IGNsYXNzPSJjbHMtMyIgeD0iMTkuODkyIiB5PSIyMS4zNSIgd2lkdGg9IjE2LjIxNyIgaGVpZ2h0PSIwLjg3NSIvPjxyZWN0IGNsYXNzPSJjbHMtMyIgeD0iMjEiIHk9IjE5LjE5MiIgd2lkdGg9IjE0IiBoZWlnaHQ9IjAuODc1Ii8+PC9zdmc+" vertex="1" parent="1">
          <mxGeometry x="310" y="100" width="48" height="48" as="geometry" />
        </mxCell>
        <mxCell id="N42mgj1Z15oAKjAtkDer-5" value="" style="shape=image;verticalLabelPosition=bottom;verticalAlign=top;imageAspect=0;aspect=fixed;image=data:image/svg+xml,PHN2ZyB4bWxucz0iaHR0cDovL3d3dy53My5vcmcvMjAwMC9zdmciIGlkPSJpbnRlZ3JhdGlvbi1hZHZpc29yIiB2aWV3Qm94PSI0LjAwMDAwMTkwNzM0ODYzMyAzLjk5OTk5OTA0NjMyNTY4MzYgNDggNDcuOTk5OTk2MTg1MzAyNzM0IiB3aWR0aD0iNDgiIGhlaWdodD0iNDcuOTk5OTk2MTg1MzAyNzM0Ij48ZGVmcz48c3R5bGU+LmNscy0xe2ZpbGw6IzA3NGQ5Mjt9LmNscy0ye2ZpbGw6IzBhNmVkMTt9LmNscy0ze2ZpbGw6IzA1M2I3MDt9PC9zdHlsZT48L2RlZnM+PHBhdGggY2xhc3M9ImNscy0xIiBkPSJNMjgsNkEyMiwyMiwwLDEsMSw2LDI4LDIyLjAyNSwyMi4wMjUsMCwwLDEsMjgsNm0wLTJBMjQsMjQsMCwxLDAsNTIsMjgsMjQsMjQsMCwwLDAsMjgsNFoiLz48cGF0aCBjbGFzcz0iY2xzLTIiIGQ9Ik0yMC40ODQsMzUuNUgxNS42MDV2NC44NzVoNC44NzlWMzguNzUySDI2Ljk5VjM3LjEyN0gyMC40ODRabS0xLjYyNiwxLjYyN1YzOC43NUgxNy4yMzJWMzcuMTI1aDEuNjI2WiIvPjxwYXRoIGNsYXNzPSJjbHMtMiIgZD0iTTM1LjMwNSwyNC43NDRhNi4wODYsNi4wODYsMCwwLDAtMS44NDYtMS4yLDUuNzM5LDUuNzM5LDAsMCwwLTIuMjQ4LS40MzgsNi4wOTIsNi4wOTIsMCwwLDAtMi4yNjYuNDIsNS43NDgsNS43NDgsMCwwLDAtMS44NjQsMS4xODcsNS40MzcsNS40MzcsMCwwLDAtMS4yNjEsMS44NDQsNS45Nyw1Ljk3LDAsMCwwLS40NTcsMi4zNTYsNC4wODksNC4wODksMCwwLDAsLjI5MywxLjYwNyw2LjU4Myw2LjU4MywwLDAsMCwuNjc2LDEuMjQxLDExLjIwNSwxMS4yMDUsMCwwLDAsLjc4NiwxLjAwNSwzLjYyLDMuNjIsMCwwLDEsLjU4NC44NThjMCwuMDI1LjA2MS4yMTMuMTgzLjU2NnMuMjU2Ljc0OS40LDEuMTg3bC41ODUsMS43NTNIMzMuNTVxLjI5My0uOTQ4LjU0OS0xLjcxNi4yMTktLjY1OC40LTEuMjA2YTMuNjE3LDMuNjE3LDAsMCwxLC4yMTktLjU4NCwzLjUzOSwzLjUzOSwwLDAsMSwuNTg1LS44NTgsMTAuMzExLDEwLjMxMSwwLDAsMCwuNzg2LTEuMDIzLDYuNjg2LDYuNjg2LDAsMCwwLC42NTgtMS4yNDIsNC4xMSw0LjExLDAsMCwwLC4yNzQtMS41NTIsNS45ODYsNS45ODYsMCwwLDAtLjQ1Ny0yLjM1NUE1LjQ4LDUuNDgsMCwwLDAsMzUuMzA1LDI0Ljc0NFptLS4wNjQsNS4xNDJhNS4wMTgsNS4wMTgsMCwwLDEtLjUuOTQxLDguNTMxLDguNTMxLDAsMCwxLS42Ni44Niw1LjAxOSw1LjAxOSwwLDAsMC0xLjEyNiwybC0uMjU1Ljc2NS0uMTQ2LjQ0Yy0uMDY1LjE5My0uMTMyLjQtLjIuNjA3SDMwLjA0NGwtLjIxNC0uNjQyLS41LTEuNTkzLS4xNDgtLjMyMmE1LjEzNSw1LjEzNSwwLDAsMC0uODQ1LTEuMjU4LDEwLDEwLDAsMCwxLS42NzItLjg2LDUuMDE2LDUuMDE2LDAsMCwxLS41MS0uOTQyLDIuNTI4LDIuNTI4LDAsMCwxLS4xNjQtLjk3NSw0LjMzNSw0LjMzNSwwLDAsMSwuMzI4LTEuNzIzLDMuODExLDMuODExLDAsMCwxLC44ODYtMS4zLDQuMSw0LjEsMCwwLDEsMS4zNC0uODUxLDQuNSw0LjUsMCwwLDEsMS42NjctLjMwNiw0LjA5Myw0LjA5MywwLDAsMSwxLjYxNy4zMTEsNC4zNzksNC4zNzksMCwwLDEsMS4zNTMuODgzLDMuODE5LDMuODE5LDAsMCwxLC44ODcsMS4zLDQuMzQ1LDQuMzQ1LDAsMCwxLC4zMjgsMS43MjNBMi41MTksMi41MTksMCwwLDEsMzUuMjQxLDI5Ljg4NloiLz48cGF0aCBjbGFzcz0iY2xzLTIiIGQ9Ik0zMy4wNjcsMzcuOTg2SDI5LjI4NnEtLjQ2MSwwLS40Ni41MjV2MS4wNTFjMCwuMzUyLjE1My41MjYuNDYuNTI2aDMuNzgxYS40NzMuNDczLDAsMCwwLC4zNDUtLjE0OC41MTIuNTEyLDAsMCwwLC4xNDgtLjM3OFYzOC41MTFhLjUxMi41MTIsMCwwLDAtLjE0OC0uMzc3QS40NzMuNDczLDAsMCwwLDMzLjA2NywzNy45ODZabS0xLjQsMS41NzZjLS4zLDAtLjQ0NC0uMTc0LS40NDQtLjUyNXMuMTQ4LS41MjYuNDQ0LS41MjYuNDQzLjE3Ni40NDMuNTI2UzMxLjk2NSwzOS41NjIsMzEuNjcsMzkuNTYyWiIvPjxwYXRoIGNsYXNzPSJjbHMtMiIgZD0iTTI5LjM2Miw0MS4yNzdBMi40NDcsMi40NDcsMCwwLDAsMzEuMTY4LDQyYTIuNDA5LDIuNDA5LDAsMCwwLDEuNzczLS43MjNsLjMyOS0uMzI4aC00LjJaIi8+PHBhdGggY2xhc3M9ImNscy0yIiBkPSJNMzMuOSwyNy40OTJWMjcuN2gtLjQxNkwzMy4zLDI4bC4zMy4xMzguMDg3LS4yNzcuMjYuMDUyLjE1Ni0uMTM5Yy0uMDIzLS4wNjktLjA0Ni0uMTMtLjA2OS0uMTgycy0uMDQ3LS4xMDctLjA3LS4xNjRaIi8+PHBvbHlnb24gY2xhc3M9ImNscy0yIiBwb2ludHM9IjM0LjE4IDI4LjI3MiAzNC4xOTcgMjguMTMzIDM0LjA0MSAyOC4xMzMgMzQuMTggMjguMjcyIi8+PHBvbHlnb24gY2xhc3M9ImNscy0yIiBwb2ludHM9IjMzLjU5IDI3LjE5NyAzMy41MDQgMjcuMDU5IDMzLjQzNCAyNy4xOCAzMy40ODYgMjcuMzE5IDMzLjU5IDI3LjE5NyIvPjxwYXRoIGNsYXNzPSJjbHMtMiIgZD0iTTM0LjE4LDI4LjM5MywzNCwyOC4zNTlhLjk4NC45ODQsMCwwLDAtLjE4Mi0uMDE4Ljg3NS44NzUsMCwwLDAtLjEzLjAwOS43NzguNzc4LDAsMCwxLS4xMTMuMDA5LjExOC4xMTgsMCwwLDEtLjA4Ny0uMDM1LDEuNjY3LDEuNjY3LDAsMCwxLS40MjUuMTQ3Yy0uMTEuMDE4LS4yMTEuMDM4LS4zLjA2MWwtLjEyMi41NzIuMTc0LjM2NC42NTkuMTU2LjI0My40LjAzNC4xNTZ2LjEzOGEzLjM2LDMuMzYsMCwwLDEtLjA1Mi41OSwyLjg3OCwyLjg3OCwwLDAsMC0uMDUyLjQ1YzAsLjA4MS4wMTguMTIyLjA1Mi4xMjJxLjI0My0uNS41LTEuMDQ5YTIuNzE3LDIuNzE3LDAsMCwwLC4yNjEtMS4xODcsNC4xMzYsNC4xMzYsMCwwLDAtLjAzNS0uNDc3QS40MTkuNDE5LDAsMCwwLDM0LjE4LDI4LjM5M1oiLz48cGF0aCBjbGFzcz0iY2xzLTIiIGQ9Ik0zMS43NTEsMjYuMTIzYTIuNjc3LDIuNjc3LDAsMCwwLS40LjMyOSwyLjUsMi41LDAsMCwwLS4yNzcuMzI5LjEzOC4xMzgsMCwwLDAsLjA1Mi0uMDA4LjExOC4xMTgsMCwwLDEsLjA1Mi0uMDA5LjIzNi4yMzYsMCwwLDEsLjE3My4wNTIuMzEyLjMxMiwwLDAsMSwuMTkxLS4wNTJjMC0uMDEyLjAyLjAzNS4wNjEuMTM5cy4xLjE1Ni4xNjUuMTU2bC4xNTYtLjEuMTM5LS4yMjYuMTczLS4yNzdhLjg0My44NDMsMCwwLDEsLjE5MS0uMjE3LjkuOSwwLDAsMSwuMTczLS4wOTUsMS41ODksMS41ODksMCwwLDEtLjQtLjNDMzIuMDQxLDI1LjkzOCwzMS44OSwyNi4wMywzMS43NTEsMjYuMTIzWiIvPjxwYXRoIGNsYXNzPSJjbHMtMiIgZD0iTTI5Ljk4MiwyOS4zNjRsLS4yMDgtLjEzOS4wMTctLjI0Mi0uMTkxLS4yMDguMjI2LS4yNDMuMTU2LjA2OS4wNTItLjFIMzAuNGwuMDcuM2guMTM4bC0uMDY5LS4zLjQ1MS0uMjI1TDMwLjksMjguMWwuMjI2LS4wMTgtLjEtLjA4Ni4xNTYtLjE1Ni0uMTM5LS4yMjZ2LS4xMzhsLS4zMTIuMjA4LS4wODcuMTM4LS4xNTYtLjAxN3YtLjE5MWwuMjc4LS4yOTQtLjEtLjI2LS40ODYtLjAzNUwyOS45LDI3LjNsLS4zNDctLjA2OS4yNzgtLjYyNGEuMDguMDgsMCwwLDEtLjA1Mi0uMDg3LjA3NC4wNzQsMCwwLDEsLjAxNy0uMDUyLjYzNS42MzUsMCwwLDEtLjMyMS0uMTEyLjY1Mi42NTIsMCwwLDAtLjMzOC0uMTEzLjYyNi42MjYsMCwwLDAtLjMuMTIxLDMuMjgsMy4yOCwwLDAsMC0uMzkuMywyLjg4MiwyLjg4MiwwLDAsMC0uMzQ3LjM1NS41MzkuNTM5LDAsMCwwLS4xNDguMjg2bC4wNy4xOTEuMzEyLjE5MS4xLjM0Ni0uMDUyLjQ1MS4yNi41Mi4xMjItLjA1Mi0uMTkxLS4zNDcuMTIxLjEzOS4xMjIuMDg3YTEuMDE5LDEuMDE5LDAsMCwwLC43NDYuMzEybC4xOS4yNDItLjQzMy41MzguNDg2LjQzM3EuMDUxLjMxMi4wNzguNTcyYTIuNzIyLDIuNzIyLDAsMCwwLC4wNzguNDUxbC4xOTEuNDMzLjE1Ni4zNDdjLjAxMS0uMDEyLjA0LS4wMTguMDg2LS4wMThsLjA3LS4wNjlhLjA3Ni4wNzYsMCwwLDAtLjAwOS0uMDM1QS4wNzIuMDcyLDAsMCwxLDMwLjQ1LDMybC4wMTgtLjIwOC4wNjktLjI2LjA1Mi0uMjQzLjAzNS0uMS44MTUtLjh2LS42MjRsLS4zMjktLjI3OFoiLz48cG9seWdvbiBjbGFzcz0iY2xzLTIiIHBvaW50cz0iMzMuODMzIDI3LjE2MyAzMy42NzcgMjcuMzM2IDMzLjg1IDI3LjMzNiAzNC4wMDcgMjcuMTggMzMuNjc3IDI2LjgxNiAzMy42MjUgMjYuOTcyIDMzLjcyOSAyNy4xMjggMzMuODMzIDI3LjE2MyIvPjxwb2x5Z29uIGNsYXNzPSJjbHMtMiIgcG9pbnRzPSIzMy4yOTUgMjYuNjYgMzMuMjYxIDI2LjUyMSAzMy4wNTIgMjYuNTIxIDMyLjk4MyAyNi43OTkgMzMuMTc0IDI2Ljc2NCAzMy4yOTUgMjYuNjYiLz48cGF0aCBjbGFzcz0iY2xzLTIiIGQ9Ik0zNS4xMjEsMTZ2NC44NzVoMS42MjV2My4yNWgxLjYyNnYtMy4yNUg0MFYxNlptMy4yNTMsMy4yNUgzNi43NDdWMTcuNjI1aDEuNjI3WiIvPjxwYXRoIGNsYXNzPSJjbHMtMyIgZD0iTTMyLjQ3MywyMS40NzZhMy43NSwzLjc1LDAsMCwwLTUuNTkyLTIuMjY1QTUuMTIxLDUuMTIxLDAsMCwwLDIyLjE2MSwxNmMtNS41MjUuMTMxLTUuMDE4LDUuNzUzLTUuMDE4LDUuNzUzYTQuNTQyLDQuNTQyLDAsMCwwLDEuNDE2LDguODY0aDUuMTc4VjI4Ljk5MkgxOC41NTlhMi45MTcsMi45MTcsMCwwLDEtLjkwOC01LjY5NWwxLjI1MS0uNDExLS4xNDItMS4zMDhhNC4zODksNC4zODksMCwwLDEsLjgxMi0yLjg2MiwzLjUyNSwzLjUyNSwwLDAsMSwyLjYxOS0xLjA5LDMuMjgyLDMuMjgyLDAsMCwxLDMuMTc5LDIuMTg1bC43MDgsMS43ODEsMS42NDMtLjk4OWEyLjExOCwyLjExOCwwLDAsMSwxLjEwNy0uMzIsMi4xNDUsMi4xNDUsMCwwLDEsMS45MDgsMS4xOTNaIi8+PC9zdmc+" vertex="1" parent="1">
          <mxGeometry x="140" y="90" width="48" height="48" as="geometry" />
        </mxCell>
      </root>
    </mxGraphModel>
  </diagram>
</mxfile>
